<?xml version="1.0" encoding="UTF-8"?>
<svg width="542px" height="421px" viewBox="0 0 542 421" version="1.1" xmlns="http://www.w3.org/2000/svg" xmlns:xlink="http://www.w3.org/1999/xlink">
    <title>illustration</title>
    <g id="Page-1" stroke="none" stroke-width="1" fill="none" fill-rule="evenodd">
        <g id="Desktop-HD" transform="translate(-706.000000, -276.000000)">
            <g id="illustration" transform="translate(706.000000, 276.000000)">
                <g id="ovals-other">
                    <path d="M438.717762,2.5 C464.293338,2.5 493.25935,6.80622277 513.688151,18.7695116 C529.035723,27.7571873 539.5,41.1394467 539.5,60.4830051 C539.5,85.1319723 523.077467,123.926422 500.923995,154.495533 C482.262076,180.246725 459.478257,200.5 438.717762,200.5 C415.844886,200.5 395.239901,188.552926 380.532403,167.662277 C366.236357,147.356057 357.5,118.648429 357.5,84.0866143 C357.5,52.7924795 364.626511,33.0436134 376.742038,20.8747057 C391.670882,5.88008651 413.960198,2.5 438.717762,2.5 Z" id="oval-up" stroke="#46403C" stroke-width="5"></path>
                    <path d="M161.567473,404 C220.044171,404 253,337.26129 253,278.906086 C253,220.550883 188.410285,186 129.933588,186 C71.4568899,186 0,208.391953 0,266.747157 C0,325.10236 103.090776,404 161.567473,404 Z" id="oval-down" fill="#46403C"></path>
                </g>
                <path d="M224.57971,180 C267.978085,180 321,114.596266 321,71.2419132 C321,27.8875603 267.978085,23 224.57971,23 C181.181334,23 146,40.1411218 146,101.5 C146,162.858878 181.181334,180 224.57971,180 Z" id="oval-floating" fill="#46403C"></path>
                <rect id="left-rec" stroke="#D44000" stroke-width="10" x="299" y="163" width="63" height="189"></rect>
                <rect id="mid-rec" stroke="#FF7A00" stroke-width="10" x="380" y="191" width="63" height="62" rx="20"></rect>
                <rect id="right-rec" stroke="#FFEFCF" stroke-width="10" x="462" y="227" width="63" height="189"></rect>
            </g>
        </g>
    </g>
</svg>